<svg width="41" height="41" viewBox="0 0 41 41" fill="none" xmlns="http://www.w3.org/2000/svg">
<path d="M39.25 20.5C39.25 30.8553 30.8553 39.25 20.5 39.25L20.5 40.75C31.6838 40.75 40.75 31.6838 40.75 20.5L39.25 20.5ZM20.5 39.25C10.1447 39.25 1.74999 30.8553 1.75 20.5L0.249997 20.5C0.249995 31.6838 9.31623 40.75 20.5 40.75L20.5 39.25ZM1.75 20.5C1.75 10.1447 10.1447 1.75 20.5 1.75L20.5 0.250003C9.31623 0.250001 0.249999 9.31623 0.249997 20.5L1.75 20.5ZM20.5 1.75C30.8553 1.75001 39.25 10.1447 39.25 20.5L40.75 20.5C40.75 9.31624 31.6838 0.250005 20.5 0.250003L20.5 1.75Z" fill="#393939"/>
<path d="M18.0303 12.4697C17.7374 12.1768 17.2626 12.1768 16.9697 12.4697C16.6768 12.7626 16.6768 13.2374 16.9697 13.5303L18.0303 12.4697ZM25 20.5L25.5303 21.0303C25.671 20.8897 25.75 20.6989 25.75 20.5C25.75 20.3011 25.671 20.1103 25.5303 19.9697L25 20.5ZM16.9697 27.4697C16.6768 27.7626 16.6768 28.2374 16.9697 28.5303C17.2626 28.8232 17.7374 28.8232 18.0303 28.5303L16.9697 27.4697ZM16.9697 13.5303L24.4697 21.0303L25.5303 19.9697L18.0303 12.4697L16.9697 13.5303ZM24.4697 19.9697L16.9697 27.4697L18.0303 28.5303L25.5303 21.0303L24.4697 19.9697Z" fill="#393939"/>
</svg>
