<svg width="41" height="41" viewBox="0 0 41 41" fill="none" xmlns="http://www.w3.org/2000/svg">
<path d="M1.75001 20.5C1.75001 10.1447 10.1447 1.75001 20.5 1.75001L20.5 0.250006C9.31624 0.250005 0.250006 9.31623 0.250006 20.5L1.75001 20.5ZM20.5 1.75001C30.8553 1.75001 39.25 10.1447 39.25 20.5L40.75 20.5C40.75 9.31624 31.6838 0.250007 20.5 0.250006L20.5 1.75001ZM39.25 20.5C39.25 30.8553 30.8553 39.25 20.5 39.25L20.5 40.75C31.6838 40.75 40.75 31.6838 40.75 20.5L39.25 20.5ZM20.5 39.25C10.1447 39.25 1.75 30.8553 1.75001 20.5L0.250006 20.5C0.250005 31.6838 9.31624 40.75 20.5 40.75L20.5 39.25Z" fill="#F5437C"/>
<path d="M22.9697 28.5303C23.2626 28.8232 23.7374 28.8232 24.0303 28.5303C24.3232 28.2374 24.3232 27.7626 24.0303 27.4697L22.9697 28.5303ZM16 20.5L15.4697 19.9697C15.329 20.1103 15.25 20.3011 15.25 20.5C15.25 20.6989 15.329 20.8897 15.4697 21.0303L16 20.5ZM24.0303 13.5303C24.3232 13.2374 24.3232 12.7626 24.0303 12.4697C23.7374 12.1768 23.2626 12.1768 22.9697 12.4697L24.0303 13.5303ZM24.0303 27.4697L16.5303 19.9697L15.4697 21.0303L22.9697 28.5303L24.0303 27.4697ZM16.5303 21.0303L24.0303 13.5303L22.9697 12.4697L15.4697 19.9697L16.5303 21.0303Z" fill="#F5437C"/>
</svg>
