<svg width="11" height="7" viewBox="0 0 11 7" fill="none" xmlns="http://www.w3.org/2000/svg">
<path d="M10.5529 5.40239C10.8328 5.70773 10.8121 6.18215 10.5068 6.46205C10.2015 6.74194 9.72703 6.72131 9.44713 6.41597L10.5529 5.40239ZM5.5 1.00009L4.94714 0.493295C5.08919 0.338324 5.28977 0.250089 5.5 0.250089C5.71023 0.250089 5.91081 0.338324 6.05287 0.493295L5.5 1.00009ZM1.55287 6.41597C1.27297 6.72131 0.798546 6.74194 0.493207 6.46205C0.187867 6.18215 0.16724 5.70773 0.447134 5.40239L1.55287 6.41597ZM9.44713 6.41597L4.94713 1.50688L6.05287 0.493295L10.5529 5.40239L9.44713 6.41597ZM6.05287 1.50688L1.55287 6.41597L0.447134 5.40239L4.94714 0.493295L6.05287 1.50688Z" fill="white"/>
</svg>
