<svg width="11" height="7" viewBox="0 0 11 7" fill="none" xmlns="http://www.w3.org/2000/svg">
<path d="M10.5529 1.50679C10.8328 1.20145 10.8121 0.727029 10.5068 0.447134C10.2015 0.16724 9.72703 0.187867 9.44713 0.493207L10.5529 1.50679ZM5.5 5.90909L4.94714 6.41588C5.08919 6.57086 5.28977 6.65909 5.5 6.65909C5.71023 6.65909 5.91081 6.57086 6.05287 6.41588L5.5 5.90909ZM1.55287 0.493207C1.27297 0.187867 0.798546 0.16724 0.493207 0.447135C0.187867 0.727029 0.16724 1.20145 0.447134 1.50679L1.55287 0.493207ZM9.44713 0.493207L4.94713 5.4023L6.05287 6.41588L10.5529 1.50679L9.44713 0.493207ZM6.05287 5.4023L1.55287 0.493207L0.447134 1.50679L4.94714 6.41588L6.05287 5.4023Z" fill="white"/>
</svg>
