<svg width="14" height="9" viewBox="0 0 14 9" fill="none" xmlns="http://www.w3.org/2000/svg">
<path d="M13.7295 1.68394C14.1073 1.28103 14.0869 0.648193 13.6839 0.270463C13.281 -0.107267 12.6482 -0.0868534 12.2705 0.316059L13.7295 1.68394ZM7 7.4L6.27046 8.08394C6.45951 8.28559 6.72359 8.4 7 8.4C7.27641 8.4 7.54049 8.28559 7.72954 8.08394L7 7.4ZM1.72954 0.316058C1.35181 -0.0868539 0.718971 -0.107268 0.316059 0.270462C-0.086853 0.648193 -0.107267 1.28103 0.270463 1.68394L1.72954 0.316058ZM12.2705 0.316059L6.27046 6.71606L7.72954 8.08394L13.7295 1.68394L12.2705 0.316059ZM7.72954 6.71606L1.72954 0.316058L0.270463 1.68394L6.27046 8.08394L7.72954 6.71606Z" fill="#393939"/>
</svg>
