<svg width="14" height="9" viewBox="0 0 14 9" fill="none" xmlns="http://www.w3.org/2000/svg">
<path d="M0.270463 7.31606C-0.107267 7.71897 -0.0868534 8.35181 0.316059 8.72954C0.718971 9.10727 1.35181 9.08685 1.72954 8.68394L0.270463 7.31606ZM7 1.6L7.72954 0.916059C7.54049 0.714408 7.27641 0.6 7 0.6C6.72359 0.6 6.45951 0.714408 6.27046 0.916059L7 1.6ZM12.2705 8.68394C12.6482 9.08685 13.281 9.10727 13.6839 8.72954C14.0869 8.35181 14.1073 7.71897 13.7295 7.31606L12.2705 8.68394ZM1.72954 8.68394L7.72954 2.28394L6.27046 0.916059L0.270463 7.31606L1.72954 8.68394ZM6.27046 2.28394L12.2705 8.68394L13.7295 7.31606L7.72954 0.916059L6.27046 2.28394Z" fill="#393939"/>
</svg>
