<svg width="166" height="166" viewBox="0 0 166 166" fill="none" xmlns="http://www.w3.org/2000/svg">
<path d="M94.038 109.149C95.3455 116.558 96.7409 123.831 97.6484 131.191C98.6535 139.363 98.0875 147.388 95.3358 155.169C92.8377 162.227 88.5247 165.961 83.0896 166C77.6447 166.039 73.2829 162.285 70.7165 155.326C66.0815 142.706 68.0819 130.067 70.619 117.438C71.1556 114.77 71.868 112.13 72.1997 109.315C67.4671 115.952 63.3688 122.99 58.0898 129.178C52.762 135.434 46.6242 140.693 38.8179 143.508C33.7926 145.326 28.4355 146 24.2688 141.709C20.1217 137.447 20.7267 132.237 22.7661 127.135C27.9964 114.076 38.5739 106.089 49.7858 98.7388C52.3326 97.0673 55.016 95.601 57.4458 93.4701C53.162 94.4378 48.8978 95.5033 44.5946 96.3635C34.983 98.2891 25.3325 98.6899 15.6526 96.8522C12.1007 96.1777 8.85133 94.7799 5.85565 92.7663C-2.05803 87.4488 -1.93117 78.319 6.11911 73.3339C13.7498 68.6126 22.2197 67.8208 30.8945 68.163C39.296 68.4953 47.4732 70.3819 55.8845 71.8188C49.3369 67.4396 42.9065 63.0507 36.9151 58.0557C30.5627 52.7577 25.6349 46.4334 22.5807 38.7503C20.6291 33.8336 20.2291 28.7506 24.1615 24.5963C27.9573 20.5886 32.7582 20.7548 37.7055 22.3579C49.3174 26.131 56.7627 34.8502 63.5932 44.2341C66.5011 48.2417 69.0089 52.5427 72.0534 56.5797C70.8044 49.4245 69.1748 42.4062 68.3454 35.2509C67.3891 27.0791 67.7306 19.0442 70.6775 11.2927C71.4191 9.33774 72.3949 7.42186 73.5658 5.70148C78.7083 -1.82517 87.3148 -1.94247 92.3596 5.60374C98.3607 14.6064 98.7901 24.782 97.6484 35.1239C96.8482 42.3182 95.6675 49.4538 93.8526 56.5895C98.3119 50.402 102.118 43.8822 107.026 38.1639C113.339 30.8229 120.209 24.2738 130.035 21.9082C139.988 19.5134 146.916 26.3753 144.164 36.2871C141.559 45.671 135.558 52.9044 128.113 58.9355C122.385 63.5688 116.384 67.8599 110.002 71.7406C118.423 70.5089 126.571 68.5051 134.963 68.1727C143.637 67.8306 152.098 68.5833 159.758 73.2557C167.866 78.2018 168.11 87.3315 160.284 92.6783C155.015 96.2853 149.053 97.5462 142.818 97.8786C132.035 98.4455 121.497 97.0184 111.153 93.9784C110.295 93.7243 109.426 92.952 108.148 93.8904C117.34 99.2764 126.229 104.829 133.587 112.482C137.451 116.5 140.583 120.977 142.808 126.089C145.121 131.436 146.223 136.949 141.832 141.582C137.412 146.245 131.723 145.316 126.424 143.205C116.432 139.226 109.28 131.768 103.269 123.127C100.078 118.552 97.1117 113.812 94.038 109.149Z" fill="#BEFFF3" fill-opacity="0.1"/>
</svg>
