<svg width="186" height="328" viewBox="0 0 186 328" fill="none" xmlns="http://www.w3.org/2000/svg">
<path d="M43.81 215.668C46.3936 230.308 49.1507 244.678 50.9438 259.221C52.9297 275.368 51.8114 291.225 46.3743 306.599C41.4384 320.544 32.9164 327.922 22.177 327.999C11.4184 328.077 2.79988 320.66 -2.27095 306.908C-11.4293 281.974 -7.47673 257 -2.46375 232.046C-1.40331 226.774 0.00418091 221.559 0.659714 215.996C-8.69142 229.111 -16.7893 243.017 -27.2202 255.243C-37.7475 267.604 -49.875 277.995 -65.2996 283.557C-75.2291 287.15 -85.8142 288.483 -94.0471 280.004C-102.241 271.583 -101.046 261.288 -97.0163 251.206C-86.6819 225.402 -65.7816 209.623 -43.6281 195.098C-38.5958 191.796 -33.2936 188.898 -28.4927 184.688C-36.9569 186.6 -45.3826 188.705 -53.8854 190.405C-72.8769 194.21 -91.9455 195.002 -111.072 191.371C-118.09 190.038 -124.511 187.276 -130.43 183.297C-146.066 172.79 -145.816 154.751 -129.909 144.901C-114.832 135.572 -98.0961 134.007 -80.9555 134.683C-64.3548 135.34 -48.1976 139.068 -31.5776 141.907C-44.515 133.254 -57.221 124.582 -69.0593 114.713C-81.6111 104.244 -91.3478 91.7479 -97.3827 76.5669C-101.239 66.8519 -102.029 56.8085 -94.2592 48.6C-86.759 40.6811 -77.2729 41.0095 -67.4976 44.177C-44.5535 51.6323 -29.8424 68.8606 -16.3459 87.4022C-10.6002 95.321 -5.64508 103.819 0.370499 111.796C-2.09743 97.6581 -5.31729 83.7905 -6.95616 69.6525C-8.84566 53.5058 -8.17084 37.6295 -2.34807 22.3133C-0.882736 18.4505 1.04533 14.6649 3.35902 11.2656C13.52 -3.60636 30.5255 -3.83813 40.4937 11.0724C52.3513 28.8608 53.1996 48.9669 50.9438 69.4014C49.3628 83.6166 47.0298 97.716 43.4436 111.815C52.2549 99.5895 59.7744 86.7069 69.4726 75.4081C81.9472 60.9031 95.5208 47.9626 114.936 43.2886C134.603 38.5566 148.292 52.1151 142.855 71.6998C137.707 90.2414 125.849 104.534 111.138 116.451C99.8204 125.606 87.9628 134.085 75.3532 141.752C91.9924 139.319 108.092 135.359 124.673 134.703C141.814 134.027 158.53 135.514 173.666 144.746C189.688 154.519 190.17 172.559 174.707 183.123C164.295 190.25 152.515 192.742 140.194 193.399C118.889 194.519 98.0659 191.699 77.6283 185.692C75.9316 185.19 74.2156 183.664 71.6898 185.518C89.8523 196.161 107.417 207.131 121.955 222.254C129.59 230.192 135.779 239.038 140.175 249.139C144.744 259.704 146.923 270.598 138.247 279.752C129.513 288.965 118.272 287.131 107.803 282.959C88.0592 275.098 73.9264 260.361 62.0495 243.287C55.7447 234.248 49.8834 224.881 43.81 215.668Z" fill="#BEFFF3" fill-opacity="0.1"/>
</svg>
