<svg width="79" height="79" viewBox="0 0 79 79" fill="none" xmlns="http://www.w3.org/2000/svg">
<rect width="79" height="79" rx="20" fill="#FF75A0"/>
<path d="M66 19.659C66 20.0053 66 20.3527 66 20.699C65.7443 22.1029 64.8468 23.0793 63.8759 24.0392C61.1834 26.7014 58.5251 29.399 55.8544 32.084C55.7261 32.213 55.606 32.3503 55.4269 32.5426C55.6743 32.5541 55.8389 32.5666 56.0045 32.5676C57.0738 32.5697 58.1432 32.5655 59.2135 32.5697C61.0105 32.5759 62.2238 33.7427 62.2279 35.5491C62.2434 41.5629 62.2351 47.5778 62.231 53.5917C62.23 54.6108 61.8677 55.5041 60.9805 56.0127C60.4526 56.3163 59.7942 56.4619 59.1783 56.5233C58.3305 56.6075 57.4693 56.5441 56.5697 56.5441C56.5697 56.7843 56.5697 56.9538 56.5697 57.1233C56.5697 58.3535 56.5708 59.5848 56.5697 60.815C56.5687 61.9766 55.9994 62.299 54.9828 61.7166C54.9083 61.674 54.8338 61.6293 54.7592 61.5867C51.9985 59.9852 49.2408 58.3774 46.4718 56.7905C46.2182 56.6449 45.8931 56.5565 45.6012 56.5555C42.2028 56.5399 38.8044 56.5451 35.406 56.5451C34.7673 56.5451 34.1296 56.5545 33.4909 56.543C31.6618 56.5118 30.5014 55.3253 30.4972 53.4856C30.4941 51.7875 30.4962 50.0882 30.4962 48.39C30.4962 48.2039 30.4962 48.0188 30.4962 47.8087C29.7933 47.7536 29.1919 47.7484 28.5708 48.1176C25.7687 49.7856 22.9375 51.4037 20.1146 53.0343C19.2782 53.5179 18.6809 53.1778 18.6758 52.2169C18.6696 50.9347 18.6737 49.6515 18.6737 48.3692C18.6737 48.1872 18.6737 48.0053 18.6737 47.7734C18.2534 47.7734 17.9118 47.7744 17.5702 47.7734C16.9491 47.7723 16.327 47.7973 15.708 47.763C14.2329 47.6808 13.4275 46.7844 13 45.4512C13 39.0037 13 32.5551 13 26.1076C13.5704 24.3709 14.797 23.7896 16.5671 23.799C24.9291 23.8447 33.2901 23.8187 41.6521 23.8198C43.5516 23.8198 44.7151 24.9772 44.7306 26.8865C44.741 28.1687 44.7317 29.4499 44.7337 30.7321C44.7337 30.9131 44.7493 31.093 44.7627 31.3717C44.9832 31.1647 45.1323 31.0316 45.2731 30.8902C49.6984 26.4445 54.1226 21.9968 58.5479 17.5511C58.7425 17.3556 58.9382 17.158 59.1493 16.9802C61.4515 15.0366 64.9773 16.1202 65.8095 19.0257C65.8706 19.2368 65.9369 19.4479 66 19.659ZM32.1525 47.7734C32.1525 49.6348 32.1525 51.4193 32.1525 53.2028C32.1525 54.5141 32.5106 54.8791 33.8004 54.8791C37.8199 54.8791 41.8395 54.8698 45.859 54.8937C46.2658 54.8958 46.715 55.0216 47.0701 55.2234C49.5172 56.6085 51.9436 58.0301 54.3773 59.4382C54.5336 59.5286 54.6951 59.6108 54.9145 59.7293C54.9145 58.4294 54.9135 57.22 54.9145 56.0095C54.9155 55.1194 55.1547 54.8823 56.0563 54.8802C57.0738 54.8781 58.0924 54.8843 59.11 54.8781C60.1348 54.8719 60.5747 54.4465 60.5758 53.4337C60.5799 47.5061 60.5799 41.5785 60.5758 35.651C60.5747 34.6682 60.1265 34.2346 59.1369 34.2325C57.4631 34.2284 55.7903 34.2211 54.1174 34.244C53.8907 34.2471 53.6123 34.3594 53.4508 34.5175C52.2873 35.652 51.1476 36.8115 50.0027 37.9648C49.9271 38.0407 49.8681 38.1343 49.7563 38.2778C49.9903 38.2778 50.1435 38.2778 50.2967 38.2778C52.0223 38.2778 53.7469 38.2737 55.4725 38.2809C56.1381 38.2841 56.5635 38.7281 56.431 39.2709C56.3099 39.7701 55.96 39.9469 55.4662 39.9459C53.1889 39.9375 50.9116 39.9531 48.6353 39.9334C48.2057 39.9292 47.9075 40.0519 47.6011 40.3597C46.8196 41.1459 46.1592 42.1058 44.9636 42.3595C44.8611 42.3814 44.7524 42.6486 44.7462 42.8056C44.7213 43.4286 44.7389 44.0535 44.7348 44.6775C44.7213 46.6294 43.5806 47.7713 41.6366 47.7734C38.704 47.7765 35.7714 47.7744 32.8388 47.7744C32.6317 47.7734 32.4278 47.7734 32.1525 47.7734ZM43.1727 37.605C48.7439 32.0092 54.2872 26.4425 59.8346 20.8705C59.4878 20.5263 59.1131 20.154 58.8026 19.8462C53.2541 25.4233 47.7057 31.0004 42.1655 36.5692C42.475 36.8874 42.8353 37.2577 43.1727 37.605ZM61.1493 22.1559C55.5822 27.7496 50.0379 33.3195 44.4781 38.9049C44.8248 39.2273 45.2151 39.5902 45.5733 39.923C51.0813 34.3906 56.637 28.8093 62.1482 23.2728C61.8263 22.914 61.4722 22.5178 61.1493 22.1559ZM35.9329 33.3798C34.6182 33.3787 33.524 34.4707 33.523 35.783C33.522 37.1308 34.613 38.2269 35.9525 38.2237C37.2682 38.2206 38.3499 37.1381 38.3572 35.8153C38.3655 34.4675 37.2848 33.3819 35.9329 33.3798ZM24.1869 35.8434C24.2025 34.479 23.1445 33.3891 21.7999 33.3819C20.449 33.3756 19.3776 34.4467 19.3724 35.8101C19.3672 37.1287 20.4521 38.2237 21.7657 38.2269C23.0928 38.2289 24.1724 37.1661 24.1869 35.8434ZM28.9062 33.3819C27.5771 33.36 26.4767 34.4124 26.4539 35.7279C26.4301 37.0975 27.458 38.1801 28.8182 38.2196C30.1494 38.2581 31.2643 37.1693 31.2767 35.8184C31.2891 34.4956 30.2271 33.4037 28.9062 33.3819ZM59.9826 18.4881C61.1586 19.683 62.3128 20.856 63.4908 22.0529C64.1937 21.3593 64.5094 20.5357 64.2547 19.5374C64.0063 18.5619 63.3748 17.9328 62.409 17.7185C61.4567 17.5054 60.613 17.7601 59.9826 18.4881ZM39.2226 42.6777C40.9078 42.0579 42.4595 41.487 43.9067 40.9546C42.9605 39.9906 42.0382 39.0505 41.1055 38.101C40.5072 39.5538 39.8913 41.0513 39.2226 42.6777Z" fill="white"/>
<path d="M47.4731 51.9994C45.0585 51.9994 42.644 51.9994 40.2305 51.9982C40.0437 51.9982 39.8538 52.0069 39.671 51.9694C39.2463 51.8807 39.0095 51.5494 39.0003 51.0269C38.9911 50.5018 39.2177 50.1606 39.6394 50.0493C39.8201 50.0018 40.011 50.0018 40.1968 50.0018C45.0596 49.9993 49.9223 50.0006 54.785 50.0006C54.8361 50.0006 54.8871 49.9993 54.9382 50.0006C55.6304 50.0181 56.0051 50.3768 55.9999 51.0169C55.9948 51.6544 55.6253 51.9982 54.9218 51.9994C52.4379 52.0007 49.955 51.9994 47.4731 51.9994Z" fill="white"/>
<path d="M51.4613 45.9976C50.3144 45.9976 49.1674 46.0025 48.0205 45.9963C47.3535 45.9926 47.001 45.6434 47 45.0122C46.999 44.3822 47.3628 44.0058 48.0133 44.0045C50.3421 43.9983 52.6699 43.9983 54.9987 44.0058C55.6328 44.0082 56.013 44.4158 55.9997 45.0358C55.9873 45.6335 55.6276 45.9926 55.0059 45.9963C53.824 46.0038 52.6432 45.9976 51.4613 45.9976Z" fill="white"/>
<path d="M36.9996 35.969C37.0146 36.5172 36.5777 36.9816 36.0307 36.9995C35.4944 37.0173 35.0168 36.5653 35.0004 36.0254C34.9841 35.484 35.4305 35.0155 35.9762 35.0004C36.5247 34.9853 36.9847 35.4208 36.9996 35.969Z" fill="white"/>
<path d="M21.4944 35C21.7746 34.9959 21.9965 35.4309 22 35.9903C22.0034 36.5552 21.7885 36.993 21.5055 36.9999C21.2247 37.0068 21.0021 36.5718 21 36.0096C20.9979 35.4406 21.2115 35.0042 21.4944 35Z" fill="white"/>
<path d="M28.974 36.9998C28.4166 36.9888 27.9892 36.5405 28.0002 35.978C28.0098 35.4224 28.4604 34.9879 29.0151 35.0003C29.5698 35.0126 30.0081 35.4665 29.9999 36.0179C29.9903 36.5652 29.5246 37.0108 28.974 36.9998Z" fill="white"/>
</svg>
