<svg width="79" height="79" viewBox="0 0 79 79" fill="none" xmlns="http://www.w3.org/2000/svg">
<rect width="79" height="79" rx="20" fill="#FF75A0"/>
<path d="M54.9595 61.7209C44.6534 61.7209 34.3466 61.7209 24.0405 61.7209C22.0589 61.0054 21.5038 60.2055 21.5047 58.06C21.5064 53.2294 21.5099 48.3989 21.5064 43.5675C21.5064 43.4513 21.4713 43.2797 21.3914 43.2269C20.6263 42.7236 20.2257 41.9861 20 41.1281C20 39.837 20 38.5469 20 37.2559C20.5235 35.2564 21.8938 34.6307 23.7191 34.673C26.8338 34.7451 29.952 34.6932 33.0685 34.6932C33.2231 34.6932 33.3768 34.6932 33.6693 34.6932C33.1256 34.152 32.6732 33.7049 32.2235 33.2535C30.7505 31.7759 30.747 30.0493 32.213 28.5805C35.4718 25.3147 38.7376 22.0559 41.9849 18.7795C42.6411 18.1168 43.3069 17.5026 44.2432 17.2791C44.5656 17.2791 44.8871 17.2791 45.2095 17.2791C46.1607 17.5079 46.838 18.1318 47.4994 18.8094C49.0445 20.3909 50.6194 21.9424 52.1794 23.5097C53.6024 24.9389 53.598 26.691 52.1715 28.122C50.1249 30.1751 48.0774 32.2274 46.0237 34.2734C45.9148 34.3826 45.747 34.4319 45.6065 34.5093C45.6504 34.5709 45.6952 34.6316 45.7391 34.6932C45.8928 34.6932 46.0466 34.6932 46.1994 34.6932C49.4468 34.6932 52.6941 34.6871 55.9415 34.6959C57.4409 34.7003 58.5652 35.6085 58.9183 37.0605C58.935 37.1283 58.9719 37.1908 59 37.2559C59 38.5469 59 39.837 59 41.1281C58.7874 41.921 58.444 42.6382 57.7457 43.1169C57.534 43.2621 57.4857 43.4117 57.4866 43.6564C57.4962 48.6629 57.5015 53.6695 57.4909 58.676C57.4874 60.1465 56.5766 61.273 55.1597 61.6417C55.0903 61.6584 55.0262 61.6936 54.9595 61.7209ZM24.5289 43.7154C24.5289 48.7166 24.5289 53.6932 24.5289 58.6901C34.5205 58.6901 44.4901 58.6901 54.4667 58.6901C54.4667 53.6818 54.4667 48.7052 54.4667 43.7154C44.4751 43.7154 34.5152 43.7154 24.5289 43.7154ZM55.974 37.7179C44.9837 37.7179 34.0163 37.7179 23.0322 37.7179C23.0322 38.7141 23.0322 39.6866 23.0322 40.659C34.0295 40.659 44.9969 40.659 55.974 40.659C55.974 39.6646 55.974 38.7036 55.974 37.7179Z" fill="white"/>
<path d="M39.5014 50.9818C40.5932 49.8865 41.6611 48.8211 42.7211 47.7496C43.0935 47.3731 43.5251 47.1555 44.0617 47.2266C44.6654 47.3064 45.0988 47.6329 45.2991 48.2121C45.4968 48.7843 45.3927 49.317 44.962 49.7531C44.0556 50.6711 43.1359 51.5768 42.2216 52.4877C41.7229 52.9844 41.2304 53.4881 40.7212 53.9734C40.0257 54.636 38.9454 54.629 38.2597 53.9524C36.8608 52.5719 35.4672 51.1862 34.0798 49.7953C33.4593 49.1731 33.4496 48.2674 34.033 47.6706C34.6314 47.0581 35.5563 47.0493 36.2006 47.682C37.2976 48.7597 38.3779 49.8558 39.5014 50.9818Z" fill="white"/>
</svg>
