<svg width="79" height="79" viewBox="0 0 79 79" fill="none" xmlns="http://www.w3.org/2000/svg">
<rect width="79" height="79" rx="20" fill="#FF75A0"/>
<path d="M46.4801 66C46.2951 66 46.1112 66 45.9261 66C45.7057 65.6765 45.4076 65.3817 45.2758 65.0261C43.7723 60.9628 42.2954 56.8906 40.8096 52.8218C40.68 52.4662 40.5393 52.114 40.4263 51.8181C39.767 51.8181 39.1864 51.8181 38.576 51.8181C38.5172 51.9683 38.4486 52.1361 38.3865 52.3061C36.8365 56.5472 35.2931 60.7916 33.7253 65.0261C33.5935 65.3817 33.2955 65.6765 33.075 66C32.8899 66 32.706 66 32.521 66C32.2263 65.6577 31.8861 65.3452 31.6457 64.9687C30.8868 63.7795 30.1644 62.5671 29.422 61.3548C27.9075 61.8616 26.4405 62.3452 24.9803 62.8454C24.5526 62.9911 24.1526 63.0596 23.8014 62.7019C23.448 62.3419 23.5399 61.9422 23.6939 61.5226C25.1487 57.5575 26.5657 53.5792 28.0681 49.6329C28.4415 48.6524 28.4382 47.9049 27.8986 46.9498C27.1397 45.6071 26.2134 44.6112 24.7864 43.9796C23.3372 43.3381 22.3045 42.2505 22.1461 40.5744C22.0874 39.956 22.1107 39.3255 22.1428 38.7028C22.1926 37.7433 22.0985 36.8169 21.5301 36.0141C20.8443 35.048 20.2881 34.0289 20 32.875C20 32.5802 20 32.2865 20 31.9917C20.3268 31.2221 20.5329 30.3674 21.006 29.7016C21.8824 28.4672 22.3267 27.1786 22.1084 25.6747C22.0874 25.5301 22.0963 25.381 22.0896 25.2342C22.0043 23.1583 22.9627 21.6876 24.8229 20.8661C26.271 20.2268 27.2516 19.2474 27.8931 17.8064C28.5457 16.3423 29.6359 15.2956 31.3388 15.1366C31.977 15.0769 32.6274 15.109 33.27 15.1377C34.2128 15.1796 35.1225 15.0758 35.9091 14.5226C36.8775 13.8403 37.9001 13.2871 39.0568 13C39.3526 13 39.6474 13 39.9432 13C40.7609 13.3566 41.6494 13.6073 42.3796 14.0953C43.5352 14.8683 44.724 15.3011 46.1156 15.1112C46.2973 15.0869 46.4834 15.0935 46.6674 15.0847C48.7714 14.982 50.2704 15.9294 51.1069 17.8064C51.7495 19.2485 52.7312 20.2257 54.1771 20.8672C55.623 21.5087 56.6766 22.572 56.845 24.2481C56.9082 24.8841 56.8871 25.5312 56.8561 26.1716C56.8107 27.13 56.9049 28.0553 57.4732 28.8558C58.158 29.8209 58.7097 30.8411 59 31.9928C59 32.2876 59 32.5813 59 32.8761C58.6831 33.6302 58.4914 34.476 58.0228 35.1209C57.091 36.4006 56.6722 37.751 56.8982 39.3079C56.9137 39.4161 56.9049 39.5287 56.9093 39.638C56.988 41.6101 56.106 43.0168 54.3699 43.9211C54.2225 43.9973 54.0751 44.0746 53.9234 44.1386C52.7345 44.6366 51.8437 45.4371 51.323 46.6318C51.1701 46.984 50.9851 47.333 50.7535 47.6377C50.4776 48.0021 50.4688 48.3223 50.6261 48.7485C52.206 53.0194 53.7605 57.2992 55.3282 61.5745C55.4767 61.9797 55.531 62.3629 55.1997 62.703C54.8695 63.0419 54.4807 63.0099 54.0718 62.8653C53.499 62.6632 52.9229 62.47 52.3467 62.2767C51.4282 61.9687 50.5086 61.6628 49.5802 61.3537C48.7547 62.7019 47.9681 64.0092 47.1537 65.2978C46.9831 65.5661 46.7072 65.7681 46.4801 66ZM45.8419 47.9723C45.9705 47.98 46.1001 47.9877 46.2286 47.9955C48.1997 48.107 48.8766 47.7249 49.6899 45.9395C50.3934 44.3948 51.5025 43.2906 53.0514 42.5906C54.8396 41.7823 55.213 41.1055 55.1233 39.1411C55.0911 38.4466 55.0934 37.74 55.182 37.0521C55.3149 36.0241 55.8966 35.1838 56.4495 34.3292C57.4577 32.7701 57.5032 32.0844 56.5259 30.6854C55.4136 29.0932 54.9327 27.4304 55.1078 25.5025C55.2651 23.7756 54.7632 23.0258 53.1522 22.3192C51.5191 21.6026 50.3668 20.4531 49.6444 18.8256C48.922 17.1991 48.1686 16.7177 46.397 16.8756C44.5024 17.0446 42.8638 16.5797 41.2993 15.491C39.8545 14.4862 39.1399 14.4895 37.6974 15.4899C36.1329 16.5753 34.4954 17.0468 32.6008 16.8756C30.8269 16.7155 30.0702 17.2025 29.3511 18.8245C28.6409 20.4321 27.5086 21.5794 25.8976 22.2982C24.1759 23.0667 23.7272 23.7866 23.8934 25.6681C24.0551 27.4977 23.5864 29.0833 22.5295 30.5905C21.5002 32.0568 21.4957 32.8043 22.5295 34.274C23.6009 35.7977 24.0573 37.4032 23.8911 39.2516C23.7283 41.0646 24.2058 41.7812 25.8422 42.5519C25.9253 42.5906 26.0084 42.6303 26.0926 42.6679C27.5341 43.3149 28.6276 44.3396 29.2149 45.7982C29.9062 47.514 31.0951 48.2373 32.9343 47.9944C34.6693 47.7647 36.175 48.3267 37.6021 49.316C39.12 50.3683 39.8335 50.3109 41.4057 49.3348C41.5464 49.2476 41.6782 49.146 41.8145 49.0521C43.0299 48.2163 44.3639 47.8298 45.8419 47.9723ZM25.9109 60.6304C26.1691 60.5609 26.3353 60.5233 26.4959 60.4703C27.369 60.1799 28.2421 59.8873 29.114 59.5903C30.0669 59.2657 30.2652 59.3353 30.7837 60.1833C31.3565 61.1185 31.9316 62.0526 32.562 63.0795C34.0566 58.9863 35.5136 55.0003 36.9672 51.0198C35.939 50.3175 34.9629 49.6495 33.6921 49.7213C32.4612 49.7908 31.2291 49.8626 30.0126 49.4C28.6465 53.1409 27.2992 56.8277 25.9109 60.6304ZM46.4269 63.0475C46.5366 62.9028 46.5843 62.8487 46.6219 62.788C47.1992 61.8483 47.7797 60.9098 48.3492 59.9646C48.6329 59.4954 49.0074 59.2889 49.5536 59.4777C49.9536 59.6157 50.3557 59.7493 50.7568 59.8818C51.4969 60.1258 52.237 60.3687 53.0968 60.6514C51.6986 56.8233 50.348 53.1254 49.0484 49.5678C47.9814 49.634 47.0064 49.8041 46.0502 49.7279C44.5124 49.6053 43.2294 50.0702 42.045 51.0529C43.4931 55.0169 44.9467 58.9941 46.4269 63.0475Z" fill="white"/>
<path d="M25 32.0137C24.9913 24.3013 31.2674 18 38.9568 18C46.7304 18 53.0033 24.274 53 32.0432C52.9967 39.7096 46.7085 45.9956 39.0388 46C31.2871 46.0055 25.0099 39.7512 25 32.0137Z" fill="white"/>
<path d="M48.9988 30.2449C48.8967 30.3882 48.7491 30.6726 48.5311 30.887C47.4195 31.9873 46.3001 33.0819 45.159 34.1528C44.8581 34.4349 44.7866 34.7069 44.857 35.094C45.1408 36.6456 45.3895 38.2029 45.6756 39.7546C45.7551 40.1834 45.704 40.5423 45.3497 40.8154C44.9876 41.0941 44.6186 41.0241 44.2371 40.8233C42.8201 40.0739 41.3918 39.3461 39.9794 38.5877C39.6456 38.4083 39.3902 38.3891 39.0427 38.5787C37.6508 39.3348 36.2361 40.048 34.835 40.7871C34.4445 40.9937 34.063 41.12 33.6701 40.83C33.2875 40.5479 33.2489 40.1721 33.3318 39.723C33.619 38.1725 33.87 36.6152 34.1481 35.0624C34.2128 34.7013 34.147 34.4395 33.8597 34.1698C32.7051 33.0853 31.581 31.9692 30.4423 30.869C30.1289 30.5654 29.8882 30.246 30.054 29.7788C30.2152 29.3241 30.574 29.1954 31.0213 29.1345C32.5745 28.9257 34.1231 28.6786 35.6775 28.4709C36.0953 28.4156 36.3326 28.2419 36.5154 27.8548C37.1489 26.513 37.8301 25.1927 38.4807 23.86C38.6953 23.421 38.9235 23.0069 39.4878 23.0001C40.0521 22.9933 40.295 23.3939 40.5119 23.8363C41.1727 25.1871 41.871 26.5198 42.4999 27.8841C42.702 28.3242 43.0029 28.4213 43.4139 28.4777C44.9853 28.6933 46.5555 28.9212 48.1246 29.1548C48.6787 29.2372 49.0227 29.6163 48.9988 30.2449ZM39.5003 25.8991C38.9235 27.0615 38.374 28.0873 37.9028 29.1469C37.6076 29.8116 37.1614 30.1095 36.4427 30.184C35.288 30.3036 34.1424 30.5056 33.0616 30.6624C33.9029 31.5517 34.7169 32.4579 35.5855 33.311C36.0249 33.7432 36.1589 34.1743 36.0374 34.7735C35.7967 35.9618 35.6196 37.1636 35.4016 38.4467C36.5699 37.8384 37.6667 37.2945 38.7339 36.6975C39.2732 36.3962 39.7353 36.3985 40.2723 36.6964C41.3419 37.2889 42.4375 37.835 43.6047 38.4422C43.3765 37.1252 43.1721 35.8896 42.9427 34.6584C42.8485 34.1517 42.953 33.7545 43.3447 33.3934C44.1474 32.6519 44.9217 31.8789 45.7051 31.1161C45.8266 30.9976 45.9333 30.8633 46.098 30.6794C44.8048 30.4954 43.6308 30.3092 42.45 30.1682C41.8278 30.0937 41.4236 29.8375 41.1568 29.2473C40.6629 28.155 40.0975 27.0953 39.5003 25.8991Z" fill="#FF75A0"/>
</svg>
